<svg id="logodhm" xmlns="http://www.w3.org/2000/svg" width="270.424" height="55.382" viewBox="0 0 270.424 55.382">
  <path id="Fill_42" data-name="Fill 42" d="M8.122,22.568H2.02A1.985,1.985,0,0,1,0,20.576V2A1.986,1.986,0,0,1,2.02,0H8.582c4.129,0,7.185,1.165,9.344,3.562A11.1,11.1,0,0,1,20.562,11.3a10.586,10.586,0,0,1-4.238,9A13.5,13.5,0,0,1,8.122,22.568ZM4.045,3.681V18.89H7.877a9.579,9.579,0,0,0,5.674-1.518,7.017,7.017,0,0,0,2.9-6.075A7.627,7.627,0,0,0,14.676,6.04c-1.4-1.543-3.645-2.359-6.5-2.359Z" transform="translate(0 0.279)" fill="#1e191a"/>
  <path id="Fill_44" data-name="Fill 44" d="M4.05,21.166V2A2.013,2.013,0,0,0,2.025,0,2.036,2.036,0,0,0,0,2v19.17a2.011,2.011,0,0,0,2.025,1.993A2.011,2.011,0,0,0,4.05,21.166" transform="translate(22.737)" fill="#1e191a"/>
  <path id="Fill_46" data-name="Fill 46" d="M13.079,10.887A17.452,17.452,0,0,0,9.007,9.368c-.743-.207-1.511-.42-2.243-.689-2.205-.811-2.5-1.651-2.5-2.367,0-1.115.407-2.6,3.926-2.6a8.034,8.034,0,0,1,2.825.512,8.549,8.549,0,0,1,.956.409,3.175,3.175,0,0,0,1.389.434,1.889,1.889,0,0,0,1.968-1.939C15.328,2.5,15,1.6,13.437.961A13.911,13.911,0,0,0,8.313,0C3.167,0,.092,2.38.092,6.371A5.673,5.673,0,0,0,3.646,11.7a23,23,0,0,0,3.713,1.352,21,21,0,0,1,2.426.824c1.947.829,2.17,1.81,2.17,2.477,0,2-1.427,3.094-4.018,3.094a7.507,7.507,0,0,1-3.353-.759l-.024-.011a8.375,8.375,0,0,1-1.3-.714,2.3,2.3,0,0,0-1.274-.5,1.951,1.951,0,0,0-1.993,2,2.594,2.594,0,0,0,1.578,2.111,14.477,14.477,0,0,0,6.36,1.578c5.011,0,8.251-2.755,8.251-7.015a5.921,5.921,0,0,0-3.11-5.254" transform="translate(28.843 0.002)" fill="#1e191a"/>
  <path id="Fill_48" data-name="Fill 48" d="M17.4,17.81a2.665,2.665,0,0,0-1.255.431,8.774,8.774,0,0,1-4.414,1.115,7.534,7.534,0,0,1-7.591-7.809,7.769,7.769,0,0,1,7.591-7.739,8.976,8.976,0,0,1,2.97.444,8.234,8.234,0,0,1,1.263.584,2.669,2.669,0,0,0,1.284.45A1.892,1.892,0,0,0,19.184,3.35c0-.967-.66-1.729-1.96-2.262A13.084,13.084,0,0,0,11.762,0,11.812,11.812,0,0,0,0,11.547c0,6.727,4.947,11.609,11.762,11.609a13.176,13.176,0,0,0,5.606-1.15c.636-.3,1.963-.916,1.963-2.259A1.935,1.935,0,0,0,17.4,17.81" transform="translate(46.1 0.002)" fill="#1e191a"/>
  <path id="Fill_50" data-name="Fill 50" d="M11.759,23.155a11.836,11.836,0,0,1-8.288-3.32,11.528,11.528,0,0,1,0-16.488A11.793,11.793,0,0,1,11.759,0,11.706,11.706,0,0,1,23.532,11.612,11.536,11.536,0,0,1,11.759,23.155Zm0-19.256A7.556,7.556,0,0,0,4.2,11.612a7.576,7.576,0,1,0,15.15,0A7.662,7.662,0,0,0,11.759,3.9Z" transform="translate(65.486 0.001)" fill="#1e191a"/>
  <path id="Fill_52" data-name="Fill 52" d="M18.15,0a2.13,2.13,0,0,0-1.968,1.36l-6.11,15.567L4,1.379A2.052,2.052,0,0,0,2.057,0,2,2,0,0,0,0,2.03a2.348,2.348,0,0,0,.153.738L7.578,21.389a2.537,2.537,0,0,0,2.464,1.766,2.6,2.6,0,0,0,2.5-1.756L20.024,2.817l.013-.035a2.407,2.407,0,0,0,.17-.789A1.98,1.98,0,0,0,18.15,0" transform="translate(88.872 0.001)" fill="#1e191a"/>
  <path id="Fill_54" data-name="Fill 54" d="M15,3.773a1.878,1.878,0,0,0,1.847-1.9A1.862,1.862,0,0,0,15,0H2.022A2.01,2.01,0,0,0,0,1.993V20.576a2.01,2.01,0,0,0,2.022,1.993H15a1.885,1.885,0,0,0,0-3.77H4.05V13.141H13.4a1.852,1.852,0,0,0,1.872-1.869,1.89,1.89,0,0,0-1.872-1.9H4.05v-5.6Z" transform="translate(110.018 0.28)" fill="#1e191a"/>
  <path id="Fill_56" data-name="Fill 56" d="M15.739,22.878a2.094,2.094,0,0,1-1.688-.91l-5.763-7.6H4.05v6.514a2.013,2.013,0,0,1-2.028,1.993A2.01,2.01,0,0,1,0,20.885V1.993A2.01,2.01,0,0,1,2.022,0H9.39a9.7,9.7,0,0,1,5.558,1.336A6.635,6.635,0,0,1,17.788,7.2,6.724,6.724,0,0,1,15,12.864a7.184,7.184,0,0,1-2.1,1.077l4.376,5.579a2.088,2.088,0,0,1,.511,1.333A2.04,2.04,0,0,1,15.739,22.878ZM4.05,3.681v7.042h5a6.313,6.313,0,0,0,3.21-.6A3.112,3.112,0,0,0,13.679,7.2a3.109,3.109,0,0,0-1.357-2.887,6.179,6.179,0,0,0-3.2-.633Z" transform="translate(128.572 0.28)" fill="#1e191a"/>
  <path id="Fill_58" data-name="Fill 58" d="M11.482,21.166V13.1l7.061-9.807.046-.07a2.485,2.485,0,0,0,.347-1.258A1.98,1.98,0,0,0,16.943,0,2.051,2.051,0,0,0,15.22.948L9.457,9.01,3.721.945A2.066,2.066,0,0,0,2,0,1.961,1.961,0,0,0,0,1.963,2.344,2.344,0,0,0,.4,3.221L7.429,13.1v8.07a2.027,2.027,0,0,0,4.053,0" transform="translate(146.412)" fill="#1e191a"/>
  <path id="Fill_60" data-name="Fill 60" d="M2.464,20.371V11.835H15.069v8.536a1.206,1.206,0,0,0,1.236,1.2,1.249,1.249,0,0,0,1.231-1.2V1.2A1.233,1.233,0,0,0,16.305,0a1.212,1.212,0,0,0-1.236,1.2V9.648H2.464V1.2A1.232,1.232,0,0,0,0,1.2v19.17a1.232,1.232,0,0,0,2.464,0" transform="translate(174.823 0.794)" fill="#1e191a"/>
  <path id="Fill_62" data-name="Fill 62" d="M10.968,21.572a11.047,11.047,0,0,1-7.735-3.1,10.728,10.728,0,0,1,0-15.351A11.008,11.008,0,0,1,10.968,0a11.024,11.024,0,0,1,7.744,3.122,10.737,10.737,0,0,1,0,15.362A11.071,11.071,0,0,1,10.968,21.572Zm0-19.256a8.336,8.336,0,0,0-8.346,8.5,8.366,8.366,0,1,0,16.731,0A8.455,8.455,0,0,0,10.968,2.316Z" transform="translate(196.085 0.793)" fill="#1e191a"/>
  <path id="Fill_64" data-name="Fill 64" d="M16.337,0H1.08A1.074,1.074,0,0,0,0,1.08,1.078,1.078,0,0,0,1.08,2.189H7.456v17.9a1.235,1.235,0,0,0,2.469,0V2.189h6.412A1.075,1.075,0,0,0,17.382,1.08,1.071,1.071,0,0,0,16.337,0" transform="translate(218.615 1.071)" fill="#1e191a"/>
  <path id="Fill_66" data-name="Fill 66" d="M14.207,2.189a1.076,1.076,0,0,0,1.05-1.109A1.07,1.07,0,0,0,14.207,0H1.239A1.218,1.218,0,0,0,0,1.2v18.58a1.212,1.212,0,0,0,1.239,1.2H14.207a1.062,1.062,0,0,0,1.05-1.074,1.076,1.076,0,0,0-1.05-1.112H2.469V11.558H12.608a1.068,1.068,0,0,0,1.077-1.077,1.1,1.1,0,0,0-1.077-1.109H2.469V2.189Z" transform="translate(238.308 1.071)" fill="#1e191a"/>
  <path id="Fill_68" data-name="Fill 68" d="M12.524,19.076H2.469V1.2A1.227,1.227,0,0,0,1.241,0,1.22,1.22,0,0,0,0,1.2V20.062a1.215,1.215,0,0,0,1.241,1.2H12.524a1.058,1.058,0,0,0,1.045-1.074,1.072,1.072,0,0,0-1.045-1.112" transform="translate(256.855 0.793)" fill="#1e191a"/>
  <path id="Fill_70" data-name="Fill 70" d="M19.509,0a1.577,1.577,0,0,0-1.36.8L10.513,13.4,2.871.8A1.527,1.527,0,0,0,1.513,0,1.453,1.453,0,0,0,0,1.508V20.4a1.145,1.145,0,0,0,1.209,1.174A1.134,1.134,0,0,0,2.378,20.4V4.562L9.306,15.78a1.418,1.418,0,0,0,1.206.77,1.381,1.381,0,0,0,1.2-.77L18.653,4.562V20.4a1.184,1.184,0,0,0,2.367,0V1.508A1.453,1.453,0,0,0,19.509,0" transform="translate(1.203 33.809)" fill="#1e191a"/>
  <path id="Fill_72" data-name="Fill 72" d="M17.288,21.572a1.23,1.23,0,0,1-1.231-.894l-1.82-4.589H4.289L2.4,20.678a1.213,1.213,0,0,1-1.23.894A1.109,1.109,0,0,1,0,20.43a2.125,2.125,0,0,1,.188-.646L7.581,1.265A1.69,1.69,0,0,1,9.28,0a1.7,1.7,0,0,1,1.725,1.265l7.366,18.518a1.828,1.828,0,0,1,.15.646A1.127,1.127,0,0,1,17.288,21.572ZM9.245,3.175,4.9,14.083h8.69Z" transform="translate(24.782 33.809)" fill="#1e191a"/>
  <path id="Fill_74" data-name="Fill 74" d="M17.013,0a1.17,1.17,0,0,0-1.2,1.142V17.258L2.62.673A1.552,1.552,0,0,0,1.384,0,1.368,1.368,0,0,0,0,1.328V20.463a1.122,1.122,0,0,0,1.169,1.109,1.151,1.151,0,0,0,1.206-1.109V4.314l13.16,16.58a1.609,1.609,0,0,0,1.231.679,1.358,1.358,0,0,0,1.419-1.328V1.142A1.163,1.163,0,0,0,17.013,0" transform="translate(45.864 33.809)" fill="#1e191a"/>
  <path id="Fill_76" data-name="Fill 76" d="M17.294,21.572a1.218,1.218,0,0,1-1.234-.894l-1.817-4.589H4.287L2.4,20.678a1.2,1.2,0,0,1-1.236.894A1.106,1.106,0,0,1,0,20.43a2.174,2.174,0,0,1,.183-.646l7.4-18.518A1.68,1.68,0,0,1,9.277,0,1.684,1.684,0,0,1,11,1.265l7.368,18.518a1.784,1.784,0,0,1,.153.646A1.124,1.124,0,0,1,17.294,21.572ZM9.245,3.175,4.9,14.083h8.7Z" transform="translate(66.603 33.809)" fill="#1e191a"/>
  <path id="Fill_78" data-name="Fill 78" d="M18.031,10.847H11.094a1.067,1.067,0,0,0-1.048,1.077,1.083,1.083,0,0,0,1.048,1.118h5.671v4.494a10.04,10.04,0,0,1-5.854,1.85c-4.653,0-8.35-3.358-8.35-8.633a8.489,8.489,0,0,1,8.35-8.528,8.964,8.964,0,0,1,2.989.458c1.508.525,1.942,1.015,2.564,1.015A1.115,1.115,0,0,0,17.6,2.558c0-.708-.617-1.171-1.508-1.543A12.7,12.7,0,0,0,10.946,0,10.888,10.888,0,0,0,0,10.752c0,6.974,4.842,10.82,10.817,10.82a10.693,10.693,0,0,0,5.948-1.7v.493a1.2,1.2,0,1,0,2.407,0V12.05a1.084,1.084,0,0,0-1.142-1.2" transform="translate(86.821 33.809)" fill="#1e191a"/>
  <path id="Fill_80" data-name="Fill 80" d="M14.2,2.184a1.067,1.067,0,0,0,1.045-1.107A1.062,1.062,0,0,0,14.2,0H1.228A1.2,1.2,0,0,0,0,1.2V19.781a1.205,1.205,0,0,0,1.228,1.2H14.2a1.061,1.061,0,0,0,1.045-1.08A1.071,1.071,0,0,0,14.2,18.8H2.467V11.558H12.605a1.073,1.073,0,0,0,1.077-1.083,1.1,1.1,0,0,0-1.077-1.109H2.467V2.184Z" transform="translate(110.556 34.088)" fill="#1e191a"/>
  <path id="Fill_82" data-name="Fill 82" d="M19.512,0a1.555,1.555,0,0,0-1.354.8L10.513,13.4,2.873.8A1.527,1.527,0,0,0,1.516,0,1.456,1.456,0,0,0,0,1.508V20.4a1.146,1.146,0,0,0,1.206,1.174A1.131,1.131,0,0,0,2.375,20.4V4.562L9.309,15.78a1.41,1.41,0,0,0,1.2.77,1.388,1.388,0,0,0,1.2-.77L18.65,4.562V20.4a1.143,1.143,0,0,0,1.2,1.174A1.131,1.131,0,0,0,21.02,20.4V1.508A1.454,1.454,0,0,0,19.512,0" transform="translate(131.195 33.809)" fill="#1e191a"/>
  <path id="Fill_84" data-name="Fill 84" d="M14.21,2.184a1.068,1.068,0,0,0,1.048-1.107A1.062,1.062,0,0,0,14.21,0H1.239A1.209,1.209,0,0,0,0,1.2V19.781a1.211,1.211,0,0,0,1.239,1.2H14.21a1.061,1.061,0,0,0,1.048-1.08A1.072,1.072,0,0,0,14.21,18.8H2.469V11.558H12.608a1.073,1.073,0,0,0,1.077-1.083,1.1,1.1,0,0,0-1.077-1.109H2.469V2.184Z" transform="translate(156.838 34.088)" fill="#1e191a"/>
  <path id="Fill_86" data-name="Fill 86" d="M17.013,0a1.169,1.169,0,0,0-1.2,1.142V17.258L2.615.673A1.537,1.537,0,0,0,1.389,0,1.371,1.371,0,0,0,0,1.328V20.463a1.119,1.119,0,0,0,1.169,1.109,1.151,1.151,0,0,0,1.206-1.109V4.314L15.54,20.894a1.591,1.591,0,0,0,1.225.679,1.354,1.354,0,0,0,1.416-1.328V1.142A1.166,1.166,0,0,0,17.013,0" transform="translate(175.393 33.809)" fill="#1e191a"/>
  <path id="Fill_88" data-name="Fill 88" d="M16.335,0H1.083A1.073,1.073,0,0,0,0,1.077,1.08,1.08,0,0,0,1.083,2.184H7.459V20.091a1.234,1.234,0,0,0,2.467,0V2.184h6.409a1.073,1.073,0,0,0,1.05-1.107A1.066,1.066,0,0,0,16.335,0" transform="translate(195.886 34.088)" fill="#1e191a"/>
</svg>
