<svg id="logo-2" xmlns="http://www.w3.org/2000/svg" width="186.518" height="52.015" viewBox="0 0 186.518 52.015">
  <path id="Fill_81" data-name="Fill 81" d="M2.27,11.859H0V0H4.946A5.355,5.355,0,0,1,8.5,1.067,3.759,3.759,0,0,1,9.758,4.082a4.482,4.482,0,0,1-.6,2.372A3.7,3.7,0,0,1,7.4,7.927l2.608,3.929-2.591,0L5.37,8.351a3.964,3.964,0,0,1-.424.017H2.27v3.489Zm0-9.877V6.369H4.946A3.037,3.037,0,0,0,6.912,5.81,2.038,2.038,0,0,0,7.589,4.15a1.969,1.969,0,0,0-.677-1.626,3.107,3.107,0,0,0-1.966-.542Z" transform="translate(59.356 39.989)" fill="#231f20"/>
  <path id="Fill_83" data-name="Fill 83" d="M0,0H8.69V1.982H2.27v2.93H8.029V6.894H2.27V9.876H8.894v1.982H0Z" transform="translate(71.602 39.989)" fill="#231f20"/>
  <path id="Fill_85" data-name="Fill 85" d="M6.649,2.372a5.658,5.658,0,0,0-1.686-.3,2.364,2.364,0,0,0-1.287.3.956.956,0,0,0-.474.847,1.115,1.115,0,0,0,.33.822,2.58,2.58,0,0,0,.83.542,13.027,13.027,0,0,0,1.364.466A14.93,14.93,0,0,1,7.7,5.759,3.529,3.529,0,0,1,9.013,6.81a2.894,2.894,0,0,1,.542,1.83,3.128,3.128,0,0,1-.584,1.889,3.654,3.654,0,0,1-1.61,1.228,6.089,6.089,0,0,1-2.346.424,7.391,7.391,0,0,1-2.71-.516A7.715,7.715,0,0,1,0,10.282L.949,8.351a6.927,6.927,0,0,0,2.016,1.3,5.357,5.357,0,0,0,2.084.474,2.642,2.642,0,0,0,1.49-.364,1.2,1.2,0,0,0,.212-1.829A2.45,2.45,0,0,0,5.912,7.4Q5.4,7.2,4.523,6.945a16.416,16.416,0,0,1-1.965-.694,3.411,3.411,0,0,1-1.3-1.025,2.822,2.822,0,0,1-.542-1.8,3.023,3.023,0,0,1,.551-1.8A3.537,3.537,0,0,1,2.821.424,5.97,5.97,0,0,1,5.15,0,7.872,7.872,0,0,1,7.428.339a7.7,7.7,0,0,1,2.007.915L8.521,3.236a8.584,8.584,0,0,0-1.872-.864" transform="translate(81.732 39.802)" fill="#231f20"/>
  <path id="Fill_87" data-name="Fill 87" d="M6.319,12.179a6.486,6.486,0,0,1-3.21-.812A6.071,6.071,0,0,1,.83,9.156,5.965,5.965,0,0,1,0,6.064,5.918,5.918,0,0,1,3.109.8,6.581,6.581,0,0,1,6.319,0,6.579,6.579,0,0,1,9.528.8a5.922,5.922,0,0,1,3.109,5.269,5.966,5.966,0,0,1-.831,3.092,6.061,6.061,0,0,1-2.278,2.211A6.484,6.484,0,0,1,6.319,12.179ZM6.352,2.033A4,4,0,0,0,2.321,6.064a3.976,3.976,0,0,0,.55,2.05A4.112,4.112,0,0,0,4.345,9.588a3.908,3.908,0,0,0,2.007.542,3.83,3.83,0,0,0,1.982-.542A4,4,0,0,0,9.783,8.114a4.086,4.086,0,0,0,.534-2.05,4.035,4.035,0,0,0-.534-2.041A3.959,3.959,0,0,0,8.334,2.567,3.874,3.874,0,0,0,6.352,2.033Z" transform="translate(92.506 39.836)" fill="#231f20"/>
  <path id="Fill_89" data-name="Fill 89" d="M2.27,11.859H0V0H4.946A5.355,5.355,0,0,1,8.5,1.067,3.759,3.759,0,0,1,9.758,4.082a4.482,4.482,0,0,1-.6,2.372A3.7,3.7,0,0,1,7.4,7.927l2.607,3.929-2.59,0L5.369,8.351a3.928,3.928,0,0,1-.423.017H2.27v3.489Zm0-9.877V6.369H4.946A3.032,3.032,0,0,0,6.911,5.81,2.036,2.036,0,0,0,7.589,4.15a1.967,1.967,0,0,0-.678-1.626,3.1,3.1,0,0,0-1.965-.542Z" transform="translate(107.141 39.989)" fill="#231f20"/>
  <path id="Fill_91" data-name="Fill 91" d="M0,0H9.672V2.016H5.98v9.842H3.693V2.016H0Z" transform="translate(118.067 39.989)" fill="#231f20"/>
  <path id="Fill_99" data-name="Fill 99" d="M22.176,31.615H9.3V6.287H5.392L0,0H22.176a19.877,19.877,0,0,1,6.576,1.023,14.2,14.2,0,0,1,5.082,3.066A13.012,13.012,0,0,1,37.083,9a18.576,18.576,0,0,1,1.083,6.561,17.573,17.573,0,0,1-1.984,8.514,13.686,13.686,0,0,1-5.614,5.584A17.524,17.524,0,0,1,22.176,31.615ZM15.89,6.287V25.268h6.286a9.616,9.616,0,0,0,7.079-2.5,9.613,9.613,0,0,0,2.5-7.079c0-3.038-.832-5.389-2.472-6.988s-4.031-2.411-7.11-2.411Z" transform="translate(76)" fill="#294634"/>
  <path id="Fill_99_Copy" data-name="Fill 99 Copy" d="M22.176,31.615H9.3V6.287H5.392L0,0H22.176a19.877,19.877,0,0,1,6.576,1.023,14.2,14.2,0,0,1,5.082,3.066A13.012,13.012,0,0,1,37.083,9a18.576,18.576,0,0,1,1.083,6.561,17.573,17.573,0,0,1-1.984,8.514,13.686,13.686,0,0,1-5.614,5.584A17.524,17.524,0,0,1,22.176,31.615ZM15.89,6.287V25.268h6.286a9.616,9.616,0,0,0,7.079-2.5,9.613,9.613,0,0,0,2.5-7.079c0-3.038-.832-5.389-2.472-6.988s-4.031-2.411-7.11-2.411Z" fill="#294634"/>
  <path id="Fill_101" data-name="Fill 101" d="M26.062,25.268v6.347H0V0H22.239l5.372,6.286H6.226v7.69A12.076,12.076,0,0,1,10.5,12.511a37.476,37.476,0,0,1,5.615-.366h4.638v6.287H16.113a36.63,36.63,0,0,0-5.981.335,13.707,13.707,0,0,0-3.906,1.5v5Z" transform="translate(122.206)" fill="#294634"/>
  <path id="Fill_103" data-name="Fill 103" d="M26.062,25.268v6.347H0V0H22.239l5.373,6.286H6.226v7.69A12.076,12.076,0,0,1,10.5,12.511a37.476,37.476,0,0,1,5.615-.366h4.638v6.287H16.113a36.63,36.63,0,0,0-5.981.335,13.713,13.713,0,0,0-3.906,1.5v5Z" transform="translate(46.577)" fill="#294634"/>
  <path id="Fill_105" data-name="Fill 105" d="M26.976,21.972V0h6.287V31.615H26.976L9.4,11.047V31.615H3.113V4.7L0,0H7.874Z" transform="translate(153.255 0)" fill="#294634"/>
</svg>
