<svg xmlns="http://www.w3.org/2000/svg" width="195.637" height="159.602" viewBox="0 0 195.637 159.602">
  <g id="Group_1" data-name="Group 1" transform="translate(-1657.5 1836.5)">
    <path id="Fill_222" data-name="Fill 222" d="M3.174,16.577H0V0H6.915a7.488,7.488,0,0,1,4.973,1.491,5.254,5.254,0,0,1,1.753,4.216A6.247,6.247,0,0,1,12.8,9.022a5.17,5.17,0,0,1-2.451,2.061l3.646,5.492-3.623,0-2.865-4.9a5.168,5.168,0,0,1-.592.024H3.174v4.878Zm0-13.807V8.9h3.74a4.244,4.244,0,0,0,2.748-.781A2.845,2.845,0,0,0,10.61,5.8a2.748,2.748,0,0,0-.948-2.273A4.341,4.341,0,0,0,6.915,2.77Z" transform="translate(1707.519 -1693.711)" fill="#fff"/>
    <path id="Fill_224" data-name="Fill 224" d="M0,0H12.149V2.771H3.174v4.1h8.052V9.638H3.174v4.168h9.259v2.77H0Z" transform="translate(1724.64 -1693.711)" fill="#fff"/>
    <path id="Fill_226" data-name="Fill 226" d="M9.3,3.315A7.908,7.908,0,0,0,6.94,2.889a3.3,3.3,0,0,0-1.8.426A1.334,1.334,0,0,0,4.477,4.5a1.555,1.555,0,0,0,.461,1.148A3.586,3.586,0,0,0,6.1,6.405a17.941,17.941,0,0,0,1.906.651,20.907,20.907,0,0,1,2.759.995A4.927,4.927,0,0,1,12.6,9.519a4.044,4.044,0,0,1,.758,2.558,4.377,4.377,0,0,1-.817,2.64,5.117,5.117,0,0,1-2.25,1.717,8.524,8.524,0,0,1-3.28.592A10.31,10.31,0,0,1,3.221,16.3,10.751,10.751,0,0,1,0,14.374l1.326-2.7A9.706,9.706,0,0,0,4.145,13.5a7.493,7.493,0,0,0,2.913.663,3.7,3.7,0,0,0,2.084-.509,1.678,1.678,0,0,0,.3-2.558,3.474,3.474,0,0,0-1.172-.746q-.711-.283-1.943-.639a23.065,23.065,0,0,1-2.747-.971A4.77,4.77,0,0,1,1.753,7.3,3.945,3.945,0,0,1,1,4.783a4.228,4.228,0,0,1,.77-2.522A4.954,4.954,0,0,1,3.943.591,8.366,8.366,0,0,1,7.2,0a11.033,11.033,0,0,1,3.186.473,10.786,10.786,0,0,1,2.806,1.279L11.912,4.523A11.958,11.958,0,0,0,9.3,3.315" transform="translate(1738.801 -1693.972)" fill="#fff"/>
    <path id="Fill_228" data-name="Fill 228" d="M8.833,17.027a9.05,9.05,0,0,1-4.487-1.136A8.479,8.479,0,0,1,1.16,12.8,8.332,8.332,0,0,1,0,8.479,8.269,8.269,0,0,1,4.345,1.113,9.2,9.2,0,0,1,8.833,0,9.2,9.2,0,0,1,13.32,1.113a8.272,8.272,0,0,1,4.346,7.366A8.332,8.332,0,0,1,16.505,12.8a8.479,8.479,0,0,1-3.185,3.092A9.05,9.05,0,0,1,8.833,17.027ZM8.88,2.843A5.594,5.594,0,0,0,3.244,8.479a5.55,5.55,0,0,0,.769,2.865A5.735,5.735,0,0,0,6.074,13.4a5.467,5.467,0,0,0,2.806.759,5.371,5.371,0,0,0,2.771-.759,5.584,5.584,0,0,0,2.023-2.06,5.681,5.681,0,0,0,.746-2.865,5.622,5.622,0,0,0-.746-2.854,5.528,5.528,0,0,0-2.023-2.037A5.429,5.429,0,0,0,8.88,2.843Z" transform="translate(1753.863 -1693.925)" fill="#fff"/>
    <path id="Fill_230" data-name="Fill 230" d="M3.174,16.577H0V0H6.915a7.492,7.492,0,0,1,4.974,1.491,5.256,5.256,0,0,1,1.752,4.216A6.247,6.247,0,0,1,12.8,9.022a5.167,5.167,0,0,1-2.451,2.061l3.646,5.492-3.623,0-2.865-4.9a5.168,5.168,0,0,1-.592.024H3.174v4.878Zm0-13.807V8.9h3.74a4.244,4.244,0,0,0,2.748-.781A2.843,2.843,0,0,0,10.61,5.8a2.747,2.747,0,0,0-.948-2.273A4.341,4.341,0,0,0,6.915,2.77Z" transform="translate(1774.323 -1693.711)" fill="#fff"/>
    <path id="Fill_232" data-name="Fill 232" d="M0,0H13.522V2.818H8.359V16.576h-3.2V2.818H0Z" transform="translate(1789.597 -1693.711)" fill="#fff"/>
    <path id="Fill_234" data-name="Fill 234" d="M14.174,13.486,0,0A43.709,43.709,0,0,0,8.252,10.907a8.152,8.152,0,0,0,3.505,2.007q1.193.326,2.417.572" transform="translate(1733.681 -1775.744)" fill="#fff"/>
    <path id="Fill_236" data-name="Fill 236" d="M14.173,0,0,13.486q1.225-.246,2.417-.572a8.142,8.142,0,0,0,3.5-2.007A43.681,43.681,0,0,0,14.173,0" transform="translate(1762.783 -1775.745)" fill="#fff"/>
    <path id="Fill_238" data-name="Fill 238" d="M30.28,74.814,51.836,52.162q.531-1.879.9-3.825L29.973,70l-.032-1.15a4.54,4.54,0,0,1,1.249-3.26L53.435,42.209c.029-.638.046-1.278.046-1.922,0-.306-.011-.61-.017-.915L29.743,61.944l-.032-1.128a4.54,4.54,0,0,1,1.249-3.26L53.068,34.323c-.113-.828-.245-1.65-.4-2.462L29.512,53.891l-.031-1.1a4.54,4.54,0,0,1,1.249-3.26L51.6,27.6q-.349-1.148-.761-2.268L29.282,45.838l-.031-1.083A4.543,4.543,0,0,1,30.5,41.5L49.326,21.711q-.521-1.1-1.1-2.169L29.051,37.787l-.03-1.062a4.542,4.542,0,0,1,1.249-3.26L46.411,16.5c-.47-.718-.957-1.424-1.467-2.113L28.821,29.734l-.03-1.039a4.542,4.542,0,0,1,1.249-3.259l12.9-13.554q-.912-1.057-1.886-2.058L28.59,21.681l-.029-1.016a4.538,4.538,0,0,1,1.249-3.259l9.13-9.6q-1.155-1.032-2.384-1.982l-8.2,7.8-.051-1.786a4.538,4.538,0,0,1,1.249-3.259l4.4-4.621q-1.482-.982-3.046-1.846l-2.8,2.666L27.988.649C27.56.374,27.41.276,26.982,0c-.5.2-1,.425-1.489.649l-.118,4.133-2.8-2.666q-1.564.861-3.046,1.846l4.4,4.621a4.542,4.542,0,0,1,1.249,3.259l-.051,1.786-8.2-7.8q-1.227.948-2.383,1.982l9.13,9.6a4.538,4.538,0,0,1,1.249,3.259l-.03,1.016L12.429,9.824q-.975,1-1.885,2.058l12.9,13.554a4.542,4.542,0,0,1,1.249,3.259l-.03,1.039L8.537,14.391c-.51.689-1,1.4-1.467,2.112L23.211,33.465a4.542,4.542,0,0,1,1.249,3.26l-.031,1.062L5.256,19.542q-.579,1.067-1.1,2.169L22.981,41.5a4.543,4.543,0,0,1,1.249,3.259L24.2,45.838,2.643,25.328q-.408,1.121-.76,2.268l20.868,21.93A4.54,4.54,0,0,1,24,52.786l-.032,1.1L.817,31.861c-.159.812-.291,1.634-.4,2.462L22.521,57.556a4.544,4.544,0,0,1,1.249,3.26l-.032,1.128L.017,39.372c-.007.3-.017.609-.017.915,0,.644.017,1.285.046,1.922L22.291,65.586a4.54,4.54,0,0,1,1.249,3.26L23.507,70,.746,48.337c.242,1.3.545,2.572.9,3.825L23.2,74.814c1.166.108,2.347.167,3.54.167s2.375-.059,3.54-.167" transform="translate(1728.579 -1836.5)" fill="#fff"/>
    <path id="Fill_240" data-name="Fill 240" d="M31,44.2H13V8.789H7.537L0,0H31A27.784,27.784,0,0,1,40.2,1.43a19.841,19.841,0,0,1,7.1,4.287,18.187,18.187,0,0,1,4.544,6.869,25.96,25.96,0,0,1,1.515,9.172,24.544,24.544,0,0,1-2.775,11.9,19.142,19.142,0,0,1-7.849,7.808A24.506,24.506,0,0,1,31,44.2ZM22.214,8.789V35.324H31c4.246,0,7.576-1.177,9.9-3.5s3.5-5.65,3.5-9.9-1.163-7.531-3.456-9.769S35.306,8.789,31,8.789Z" transform="translate(1698.634 -1749.615)" fill="#fff"/>
    <path id="Fill_242" data-name="Fill 242" d="M36.434,35.324V44.2H0V0H31.09L38.6,8.789H8.7v10.75a16.885,16.885,0,0,1,5.972-2.048,52.382,52.382,0,0,1,7.85-.512H29.01v8.788H22.526a51.151,51.151,0,0,0-8.362.47A19.182,19.182,0,0,0,8.7,28.328v7Z" transform="translate(1763.229 -1749.615)" fill="#fff"/>
    <path id="Fill_244" data-name="Fill 244" d="M36.435,35.324V44.2H0V0H31.091L38.6,8.789H8.7v10.75a16.878,16.878,0,0,1,5.972-2.048,52.373,52.373,0,0,1,7.85-.512h6.484v8.788H22.527a51.151,51.151,0,0,0-8.362.47A19.182,19.182,0,0,0,8.7,28.328v7Z" transform="translate(1657.5 -1749.615)" fill="#fff"/>
    <path id="Fill_246" data-name="Fill 246" d="M37.713,30.717V0H46.5V44.2H37.713L13.14,15.444V44.2H4.352V6.571L0,0H11.007Z" transform="translate(1806.636 -1749.616)" fill="#fff"/>
  </g>
</svg>
