<svg xmlns="http://www.w3.org/2000/svg" width="1153.781" height="5335.616" viewBox="0 0 1153.781 5335.616">
  <path id="Subtraction_1" data-name="Subtraction 1" d="M4694.9,5334.031h-24c-.482-1.689-.945-3.383-1.377-5.036a238.358,238.358,0,0,1-6.766-37.842,221,221,0,0,1,4.977-72.061,240.629,240.629,0,0,1,10.845-34.114,273,273,0,0,1,15.819-32.765,320.251,320.251,0,0,1,20.343-31.363,381.894,381.894,0,0,1,24.419-29.908c8.617-9.552,18.053-19.107,28.047-28.4a588.939,588.939,0,0,1,65.18-52.067,784.909,784.909,0,0,1,74.306-45.4c25.242-13.625,52.1-26.515,79.843-38.313,26.565-11.3,54.083-21.662,81.791-30.8,227.347-74.993,360.5-171.705,395.77-287.451,30.221-99.229-9.571-217.754-118.273-352.285-16.366-20.261-32.092-40.573-46.741-60.371-14.771-19.961-28.908-40.023-42.019-59.627-13.193-19.728-25.754-39.6-37.334-59.075-11.642-19.575-22.64-39.328-32.69-58.71-10.1-19.469-19.544-39.163-28.084-58.533-8.567-19.431-16.479-39.129-23.518-58.545-7.053-19.459-13.442-39.225-18.99-58.747-5.553-19.539-10.432-39.435-14.5-59.135s-7.451-39.789-10.051-59.713c-2.6-19.9-4.5-40.251-5.642-60.479-1.143-20.181-1.569-40.851-1.27-61.433.3-20.523,1.329-41.576,3.063-62.576,1.726-20.919,4.2-42.421,7.356-63.907,3.138-21.375,7.044-43.388,11.61-65.427,4.535-21.894,9.86-44.482,15.826-67.136,5.914-22.461,12.644-45.687,20-69.033,26.481-84.1,59.344-163.3,91.124-239.9l.01-.025.132-.318c16.685-40.193,33.939-81.755,50.072-123.829,8.483-22.125,15.9-42.406,22.664-62,7.564-21.906,14.139-42.42,20.1-62.713,6.379-21.717,12.032-43.221,16.8-63.916,5.088-22.077,9.383-44.15,12.767-65.607,3.569-22.637,6.259-45.445,8-67.789,1.817-23.387,2.653-47.094,2.488-70.461-1.243-193.251-32.325-380.68-62.384-561.939l-.04-.24c-46.031-277.835-93.628-565.129-31.9-872.112,10.06-49.988,22.194-99.935,33.93-148.237l.019-.075c27.837-114.663,56.623-233.229,57.887-352.119.215-19.158-.5-38.721-2.119-58.145-1.687-20.223-4.375-40.5-7.991-60.267-7.8-42.628-19.852-83-35.824-119.981a459.5,459.5,0,0,0-28.942-56.254,399.876,399.876,0,0,0-37.037-51.456c-6.931-8.143-14.241-16.011-21.727-23.388-7.662-7.551-15.723-14.8-23.959-21.54-8.423-6.9-17.259-13.448-26.259-19.475-9.208-6.167-18.841-11.951-28.631-17.195-9.23-4.941-18.9-9.557-28.738-13.723-9.535-4.037-19.517-7.771-29.668-11.1-9.8-3.212-20.056-6.147-30.5-8.722-10.036-2.474-20.539-4.691-31.219-6.588-10.215-1.815-20.926-3.4-31.837-4.7-10.373-1.239-21.257-2.267-32.351-3.055-20.371-1.447-41.9-2.151-65.827-2.154h-.058c-41.651,0-84.248,2.173-125.443,4.275h-.026l-.082,0-.082,0c-41.44,2.116-84.291,4.3-126.251,4.3h-.058c-26.515,0-50.271-.863-72.627-2.634-12.264-.971-24.27-2.24-35.685-3.773-12.038-1.615-23.846-3.579-35.1-5.839-11.783-2.366-23.353-5.135-34.387-8.229-11.5-3.224-22.785-6.905-33.552-10.942-11.175-4.19-22.141-8.893-32.59-13.977a357.477,357.477,0,0,1-31.5-17.335,356.9,356.9,0,0,1-30.145-21V0c15.45,13.211,28.96,23.263,42.518,31.637,9.522,5.889,19.489,11.386,29.625,16.339,9.833,4.8,20.126,9.245,30.593,13.2,10.123,3.82,20.722,7.3,31.5,10.349,10.383,2.934,21.269,5.559,32.357,7.8,10.619,2.147,21.773,4.014,33.151,5.55,10.822,1.46,22.223,2.67,33.887,3.6,21.353,1.7,44.168,2.521,69.75,2.523h.058c41.423,0,83.134-2.124,127.294-4.373l.043,0c41.726-2.134,84.872-4.341,127.251-4.341,24.734,0,47.016.742,68.118,2.264,11.515.83,22.81,1.912,33.571,3.217,11.325,1.372,22.467,3.039,33.116,4.955,11.125,2,22.081,4.34,32.563,6.953,10.9,2.716,21.637,5.815,31.913,9.212,10.651,3.521,21.137,7.467,31.166,11.732,10.364,4.407,20.564,9.289,30.32,14.513,10.339,5.537,20.512,11.635,30.236,18.128,9.506,6.348,18.836,13.239,27.727,20.483,8.693,7.081,17.2,14.689,25.295,22.614,7.907,7.745,15.624,16,22.935,24.522,7.143,8.331,14.09,17.148,20.65,26.208,6.4,8.843,12.608,18.153,18.44,27.669a480.173,480.173,0,0,1,30.546,58.831c16.854,38.655,29.584,80.839,37.836,125.383,3.826,20.649,6.679,41.839,8.479,62.979,1.729,20.293,2.507,40.745,2.313,60.789-1.3,121.3-30.379,241.126-58.5,357l-.015.066c-6.29,25.853-11.953,49.219-17.562,73.374-6.426,27.675-11.721,51.9-16.185,74.072-60.942,303.033-15.779,575.615,32.035,864.2l.041.244,0,.016c14.95,90.151,30.409,183.371,42.177,277.883,6.326,50.807,11.037,97.429,14.4,142.528,1.827,24.483,3.261,48.766,4.263,72.176,1.053,24.584,1.666,49.075,1.823,72.791.085,24.062-.83,48.406-2.717,72.354-1.8,22.9-4.559,46.215-8.189,69.3-3.443,21.9-7.8,44.382-12.94,66.815-4.822,21.038-10.532,42.869-16.969,64.887-6.017,20.581-12.65,41.359-20.277,63.521-6.827,19.839-14.306,40.355-22.863,62.719-16.37,42.783-34.533,86.555-50.558,125.174l-.041.1-.51,1.229-.01.025c-31.465,75.871-64,154.325-90.093,237.163-116.784,370.363-60.968,640.072,199.076,961.96,113.613,140.654,154.735,266,122.222,372.556-38.067,124.924-172.332,223.82-410.467,302.338-26.5,8.742-52.846,18.625-78.3,29.375-26.576,11.226-52.31,23.453-76.488,36.343a770.062,770.062,0,0,0-71.25,42.882,574.237,574.237,0,0,0-62.589,49c-9.609,8.733-18.685,17.7-26.976,26.657-8.519,9.2-16.434,18.631-23.526,28.027a304.287,304.287,0,0,0-19.648,29.342,256.5,256.5,0,0,0-15.341,30.6,223.118,223.118,0,0,0-10.608,31.813,204.866,204.866,0,0,0-5.446,32.969,201.542,201.542,0,0,0,.145,34.072,214.534,214.534,0,0,0,6.164,35.122c.93,3.544,1.961,7.111,3.066,10.6Z" transform="translate(-4343.793 1.085)" fill="#dee5e2" stroke="rgba(0,0,0,0)" stroke-miterlimit="10" stroke-width="1"/>
</svg>
