<svg id="socialmedia_copy" data-name="socialmedia copy" xmlns="http://www.w3.org/2000/svg" width="16" height="16" viewBox="0 0 16 16">
  <g id="Instagram_Copy" data-name="Instagram Copy">
    <g id="Instagram">
      <path id="Shape" d="M4.7,15.952a5.864,5.864,0,0,1-1.941-.371,3.921,3.921,0,0,1-1.418-.924A3.927,3.927,0,0,1,.419,13.24,5.893,5.893,0,0,1,.048,11.3C.009,10.444,0,10.173,0,8S.009,5.556.047,4.7A5.888,5.888,0,0,1,.419,2.76a3.938,3.938,0,0,1,.923-1.418A3.941,3.941,0,0,1,2.76.419,5.889,5.889,0,0,1,4.7.048C5.556.009,5.828,0,8,0s2.444.009,3.3.048A5.888,5.888,0,0,1,13.24.419a3.927,3.927,0,0,1,1.417.923,3.928,3.928,0,0,1,.924,1.418A5.865,5.865,0,0,1,15.952,4.7c.04.853.049,1.125.049,3.3s-.009,2.444-.049,3.3a5.864,5.864,0,0,1-.371,1.941,4.091,4.091,0,0,1-2.341,2.341,5.869,5.869,0,0,1-1.942.371c-.853.04-1.125.049-3.3.049S5.556,15.991,4.7,15.952Z" fill="#fff"/>
    </g>
  </g>
</svg>
